<?xml version="1.0" standalone="no"?>
<!DOCTYPE svg PUBLIC "-//W3C//DTD SVG 20010904//EN"
 "http://www.w3.org/TR/2001/REC-SVG-20010904/DTD/svg10.dtd">
<svg version="1.0" xmlns="http://www.w3.org/2000/svg"
 width="300.000000pt" height="300.000000pt" viewBox="0 0 300.000000 300.000000"
 preserveAspectRatio="xMidYMid meet">
<metadata>
Created by potrace 1.10, written by Peter Selinger 2001-2011
</metadata>
<g transform="translate(0.000000,300.000000) scale(0.100000,-0.100000)"
fill="#000000" stroke="none">
<path d="M1393 2106 c-45 -15 -133 -66 -133 -78 0 -14 38 -29 45 -18 4 6 30
23 58 38 46 24 63 27 147 27 79 0 103 -4 141 -23 74 -36 125 -87 161 -160 30
-61 33 -75 33 -157 -1 -78 -4 -97 -28 -143 -15 -29 -44 -70 -63 -92 -40 -44
-143 -100 -185 -100 -25 0 -49 -22 -49 -44 0 -27 159 27 219 75 225 177 190
530 -64 654 -49 25 -73 30 -149 32 -57 2 -107 -2 -133 -11z"/>
<path d="M1430 2021 c-14 -4 -40 -16 -59 -25 -29 -16 -32 -20 -19 -32 13 -13
20 -12 59 5 116 53 260 2 322 -114 30 -57 30 -173 0 -231 -27 -51 -90 -108
-136 -123 -32 -11 -55 -37 -42 -49 10 -10 82 18 124 48 48 35 96 106 112 165
17 63 6 155 -27 215 -51 93 -130 141 -239 146 -38 2 -81 0 -95 -5z"/>
<path d="M1181 1982 c-44 -157 -35 -306 26 -432 31 -62 58 -97 160 -199 68
-68 126 -122 129 -119 12 13 -183 498 -201 498 -10 0 3 -44 59 -199 31 -84 55
-158 54 -163 -5 -15 -107 94 -145 154 -49 77 -73 164 -73 265 0 46 5 104 11
129 11 42 14 45 37 39 30 -7 83 -46 135 -97 36 -36 38 -39 31 -87 -8 -65 6
-98 57 -135 l41 -29 -5 -59 c-2 -32 -6 -61 -9 -63 -3 -3 -34 50 -69 116 -36
67 -75 129 -87 137 -18 12 -8 -16 48 -129 39 -79 78 -167 87 -196 9 -29 20
-50 24 -48 18 12 40 134 37 209 l-3 80 -32 8 c-57 15 -81 78 -47 126 14 21 14
25 -15 61 -38 47 -120 111 -188 145 l-52 26 -10 -38z"/>
<path d="M1443 1938 c-36 -12 -40 -20 -20 -36 10 -8 23 -8 49 0 20 6 52 8 72
4 47 -9 111 -66 127 -113 23 -70 -10 -160 -72 -197 -26 -15 -46 -56 -28 -56
21 0 68 31 97 64 73 83 67 201 -14 283 -59 58 -132 76 -211 51z"/>
<path d="M1475 1861 c-11 -19 13 -39 40 -33 18 3 33 -4 55 -26 36 -36 39 -77
9 -116 -11 -14 -19 -35 -17 -47 l3 -21 27 22 c61 47 59 156 -3 201 -35 25
-103 37 -114 20z"/>
<path d="M1469 1766 c-10 -20 -9 -30 5 -51 33 -50 110 -14 90 43 -8 22 -16 28
-47 30 -31 3 -39 -1 -48 -22z"/>
<path d="M2072 1098 c-7 -7 -12 -20 -12 -29 0 -10 -6 -20 -12 -23 -10 -5 -10
-7 0 -12 7 -3 12 -26 12 -60 0 -41 4 -54 15 -54 12 0 15 13 15 55 0 42 3 55
15 55 8 0 15 5 15 10 0 6 -7 10 -15 10 -8 0 -15 7 -15 15 0 8 9 15 20 15 11 0
20 7 20 15 0 18 -41 20 -58 3z"/>
<path d="M771 1014 c-23 -48 -41 -88 -41 -90 0 -2 9 -4 19 -4 11 0 23 9 26 20
5 16 15 20 50 20 34 0 44 -4 48 -20 5 -19 37 -29 37 -12 0 24 -71 167 -84 170
-10 2 -28 -25 -55 -84z m79 -16 c0 -5 -11 -8 -25 -8 -29 0 -29 -1 -14 37 l11
28 13 -25 c8 -14 14 -28 15 -32z"/>
<path d="M1770 1080 c-35 -35 -24 -63 35 -83 21 -8 41 -19 42 -24 6 -17 -34
-25 -58 -13 -14 8 -24 9 -31 2 -16 -16 -1 -31 37 -38 48 -9 87 17 83 54 -2 22
-11 30 -45 42 -42 14 -56 36 -30 46 8 3 25 0 39 -5 21 -8 28 -7 32 5 4 9 -3
18 -20 24 -38 15 -62 12 -84 -10z"/>
<path d="M930 989 c0 -62 2 -70 18 -67 12 2 18 15 20 48 6 78 52 73 52 -6 0
-32 4 -44 15 -44 11 0 15 12 15 44 0 51 20 76 45 56 10 -8 14 -27 13 -53 -2
-33 1 -42 15 -45 14 -3 17 4 17 51 0 55 -18 87 -50 87 -7 0 -22 -7 -32 -17
-10 -9 -18 -11 -18 -5 0 16 -37 24 -59 13 -13 -7 -22 -8 -26 -1 -16 26 -25 4
-25 -61z"/>
<path d="M1192 1053 c-34 -7 -21 -28 18 -28 18 0 35 -6 37 -12 3 -9 -7 -13
-31 -13 -38 0 -61 -25 -50 -54 7 -19 48 -31 66 -20 7 5 21 7 31 6 14 -3 17 5
17 45 0 26 -4 53 -8 60 -9 14 -49 22 -80 16z m56 -85 c-7 -20 -48 -23 -48 -4
0 11 9 16 26 16 16 0 24 -5 22 -12z"/>
<path d="M1310 1043 c0 -6 14 -13 32 -15 l32 -3 -32 -36 c-46 -53 -43 -64 23
-64 43 0 55 3 55 15 0 12 -8 15 -37 12 l-36 -5 36 45 c20 25 37 48 37 51 0 3
-25 7 -55 9 -38 2 -55 -1 -55 -9z"/>
<path d="M1455 1035 c-14 -13 -25 -33 -25 -45 0 -26 43 -70 68 -70 33 0 72 38
72 70 0 32 -39 70 -72 70 -10 0 -30 -11 -43 -25z m77 -30 c10 -21 9 -29 -5
-43 -31 -31 -75 19 -47 53 19 22 39 18 52 -10z"/>
<path d="M1600 990 c0 -54 3 -70 14 -70 11 0 16 14 18 48 3 43 5 47 28 47 23
0 25 -4 28 -47 2 -34 7 -48 18 -48 10 0 14 14 14 54 0 72 -28 103 -69 77 -9
-6 -22 -6 -33 0 -17 9 -18 4 -18 -61z"/>
<path d="M1928 1053 c-10 -2 -18 -11 -18 -20 0 -11 7 -13 28 -8 20 4 33 1 42
-10 11 -13 8 -15 -22 -15 -19 0 -39 -5 -46 -12 -33 -33 9 -80 54 -59 15 6 25
7 29 0 13 -20 25 4 25 47 0 66 -32 93 -92 77z m56 -88 c-6 -16 -54 -21 -54 -7
0 15 12 22 36 22 17 0 22 -4 18 -15z"/>
<path d="M2156 1039 c-36 -28 -33 -73 6 -102 22 -17 33 -19 55 -11 33 11 27
30 -8 26 -14 -2 -32 4 -39 13 -11 13 -6 15 39 15 44 0 51 3 51 19 0 20 -44 61
-65 61 -7 0 -24 -10 -39 -21z m64 -24 c11 -13 7 -15 -25 -15 -32 0 -36 2 -25
15 7 8 18 15 25 15 7 0 18 -7 25 -15z"/>
</g>
</svg>
